<svg xmlns="http://www.w3.org/2000/svg" width="25" height="24" viewBox="0 0 25 24" fill="none">
<path d="M10.6665 20C10.1361 20 9.62736 19.7893 9.25228 19.4142C8.87721 19.0391 8.6665 18.5304 8.6665 18C8.6665 17.4696 8.87721 16.9609 9.25228 16.5858C9.62736 16.2107 10.1361 16 10.6665 16C11.1969 16 11.7056 16.2107 12.0807 16.5858C12.4558 16.9609 12.6665 17.4696 12.6665 18C12.6665 18.5304 12.4558 19.0391 12.0807 19.4142C11.7056 19.7893 11.1969 20 10.6665 20ZM17.6665 20C17.1361 20 16.6274 19.7893 16.2523 19.4142C15.8772 19.0391 15.6665 18.5304 15.6665 18C15.6665 17.4696 15.8772 16.9609 16.2523 16.5858C16.6274 16.2107 17.1361 16 17.6665 16C18.1969 16 18.7056 16.2107 19.0807 16.5858C19.4558 16.9609 19.6665 17.4696 19.6665 18C19.6665 18.5304 19.4558 19.0391 19.0807 19.4142C18.7056 19.7893 18.1969 20 17.6665 20ZM4.6285 5.923C4.37886 5.91495 4.14214 5.81012 3.9684 5.63068C3.79465 5.45125 3.69751 5.21127 3.69751 4.9615C3.69751 4.71173 3.79465 4.47175 3.9684 4.29232C4.14214 4.11288 4.37886 4.00805 4.6285 4H5.7795C6.6815 4 7.4615 4.626 7.6575 5.506L8.9105 11.148C9.1065 12.028 9.8865 12.654 10.7885 12.654H18.3005L19.7425 6.884H10.3975C10.1502 6.87272 9.91679 6.76654 9.74578 6.58755C9.57478 6.40857 9.47935 6.17055 9.47935 5.923C9.47935 5.67545 9.57478 5.43743 9.74578 5.25845C9.91679 5.07946 10.1502 4.97328 10.3975 4.962H19.7425C20.0348 4.96191 20.3233 5.02848 20.5861 5.15663C20.8488 5.28479 21.0789 5.47116 21.2588 5.70158C21.4387 5.93201 21.5637 6.20041 21.6243 6.4864C21.6849 6.77238 21.6795 7.06842 21.6085 7.352L20.1665 13.12C20.0625 13.5362 19.8224 13.9057 19.4843 14.1697C19.1462 14.4337 18.7295 14.5771 18.3005 14.577H10.7885C9.91329 14.5771 9.06422 14.2787 8.38151 13.7311C7.6988 13.1835 7.22328 12.4194 7.0335 11.565L5.7795 5.923H4.6285Z" fill="white"/>
</svg>